<svg width="100" height="74" viewBox="0 0 100 74" fill="none" xmlns="http://www.w3.org/2000/svg">
<path d="M43 11H15C13 11 11 9.66667 9 7C7 4.33333 6.5 0.5 6.5 0.5H63.5L21 62.5H51L57.5 73.5H1L43 11Z" fill="#020202" stroke="black"/>
<path d="M37 14.0013H28.5L32.5 21.0013L37 14.0013Z" fill="#020202"/>
<path d="M41.5 38.5014L48.5 28.0013L63 53.0014L74 28.0013L82 9.00137C82 9.00137 84.5 3.50146 88 2.00137C91.5261 0.490109 99 0.501467 99 0.501467L71 63.0015C71 63.0015 68 69.5015 67 71.5014C66.3703 72.7607 65.4081 73.5014 64 73.5014C62.5919 73.5014 61.8449 72.6278 61 71.5014C59.5 69.5015 59 68.5014 59 68.5014L41.5 38.5014Z" fill="#020202"/>
<path d="M37 14.0013H28.5L32.5 21.0013L37 14.0013Z" stroke="black"/>
<path d="M41.5 38.5014L48.5 28.0013L63 53.0014L74 28.0013L82 9.00137C82 9.00137 84.5 3.50146 88 2.00137C91.5261 0.490109 99 0.501467 99 0.501467L71 63.0015C71 63.0015 68 69.5015 67 71.5014C66.3703 72.7607 65.4081 73.5014 64 73.5014C62.5919 73.5014 61.8449 72.6278 61 71.5014C59.5 69.5015 59 68.5014 59 68.5014L41.5 38.5014Z" stroke="black"/>
</svg>
