<svg width="40" height="40" viewBox="0 0 40 40" fill="none" xmlns="http://www.w3.org/2000/svg">
<path d="M13.9793 13.0906C9.57025 7.9467 13.2252 0 20.0002 0C26.7751 0 30.4301 7.9467 26.021 13.0906L20.6898 19.3103H19.3105L13.9793 13.0906Z" fill="#0F8BFF"/>
<path d="M26.9094 13.9793C32.0533 9.57025 40 13.2252 40 20.0002C40 26.7751 32.0533 30.4301 26.9094 26.021L20.6897 20.6898L20.6897 19.3105L26.9094 13.9793Z" fill="#0084FF"/>
<path d="M13.9793 26.9094C9.57025 32.0533 13.2252 40 20.0002 40C26.7751 40 30.4301 32.0533 26.021 26.9094L20.6898 20.6897H19.3105L13.9793 26.9094Z" fill="#0F8BFF"/>
<path d="M13.0906 13.9793C7.9467 9.57025 -4.57502e-07 13.2252 -7.53645e-07 20.0002C-1.04979e-06 26.7751 7.9467 30.4301 13.0906 26.021L19.3103 20.6898L19.3103 19.3105L13.0906 13.9793Z" fill="#0084FF"/>
</svg>
