<svg width="522" height="224" viewBox="0 0 522 224" fill="none" xmlns="http://www.w3.org/2000/svg">
<path d="M189.01 83L113.641 139.619C112.81 140.242 113.364 141.562 114.391 141.407L168.704 133.188" stroke="#6394FF" stroke-width="15" stroke-linecap="round"/>
<path d="M92.0625 131.646L130.216 103.391C131.058 102.768 130.497 101.434 129.463 101.6L35.359 116.708" stroke="white" stroke-width="15" stroke-linecap="round"/>
<rect x="6" y="6" width="212" height="212" rx="51" stroke="white" stroke-width="12"/>
<rect x="6" y="6" width="212" height="212" rx="51" stroke="url(#paint0_linear_246_1790)" stroke-width="12"/>
<rect x="6" y="6" width="212" height="212" rx="51" stroke="url(#paint1_linear_246_1790)" stroke-width="12"/>
<path d="M263.3 85.8C265.433 88 267.8 89.7667 270.4 91.1C273.067 92.4333 276.333 93.1 280.2 93.1C283.933 93.1 286.767 92.4333 288.7 91.1C290.7 89.7 291.7 87.8667 291.7 85.6C291.7 83.8667 291 82.5 289.6 81.5C288.2 80.4333 286.367 79.5333 284.1 78.8C281.9 78 279.567 77.2 277.1 76.4C274.633 75.5333 272.267 74.4667 270 73.2C267.8 71.9333 266 70.2667 264.6 68.2C263.2 66.1333 262.5 63.4667 262.5 60.2C262.5 56.8 263.367 53.9333 265.1 51.6C266.833 49.2667 269.167 47.5 272.1 46.3C275.1 45.0333 278.4 44.4 282 44.4C284.533 44.4 286.933 44.6 289.2 45C291.467 45.4 293.533 45.9667 295.4 46.7C297.467 47.4333 298.733 48.4 299.2 49.6C299.733 50.7333 299.833 52.2 299.5 54L299 56.2C298.867 56.6 298.733 56.9 298.6 57.1C298.467 57.3 298.233 57.4 297.9 57.4C297.567 57.4 297.067 57.2333 296.4 56.9C294.333 55.7667 292.1 54.8667 289.7 54.2C287.3 53.5333 284.767 53.2 282.1 53.2C279.367 53.2 277.067 53.7333 275.2 54.8C273.4 55.8667 272.5 57.5 272.5 59.7C272.5 61.5 273.2 62.9667 274.6 64.1C276 65.1667 277.8 66.0667 280 66.8C282.267 67.5333 284.633 68.3 287.1 69.1C289.567 69.9 291.9 70.9 294.1 72.1C296.367 73.3 298.2 74.9 299.6 76.9C301 78.9 301.7 81.5 301.7 84.7C301.7 89.9 299.9 94.1 296.3 97.3C292.767 100.433 287.767 102 281.3 102C276.567 102 272.667 101.267 269.6 99.8C266.6 98.2667 264.367 96.3667 262.9 94.1C261.5 91.8333 260.8 89.6 260.8 87.4C260.8 86 261.267 85.3 262.2 85.3C262.667 85.3 263.033 85.4667 263.3 85.8ZM336.805 96.3C335.472 98.1 333.772 99.5 331.705 100.5C329.639 101.433 327.439 101.9 325.105 101.9C321.372 101.9 318.205 101 315.605 99.2C313.072 97.4 311.139 95 309.805 92C308.539 89 307.905 85.7 307.905 82.1C307.905 78.3667 308.605 75.0333 310.005 72.1C311.405 69.1 313.405 66.7333 316.005 65C318.672 63.2667 321.772 62.4 325.305 62.4C328.239 62.4 330.705 62.9333 332.705 64C334.772 65.0667 336.405 66.3333 337.605 67.8C338.139 66.2667 339.005 65.1667 340.205 64.5C341.472 63.7667 342.972 63.4 344.705 63.4H345.205C345.939 63.4 346.305 63.8 346.305 64.6V99.9C346.305 100.633 345.939 101 345.205 101H337.805C337.139 101 336.805 100.633 336.805 99.9V96.3ZM327.205 92.9C328.472 92.9 329.839 92.6333 331.305 92.1C332.839 91.5 334.139 90.4333 335.205 88.9C336.272 87.3667 336.805 85.1 336.805 82.1C336.805 79.1 336.272 76.8667 335.205 75.4C334.139 73.8667 332.872 72.8667 331.405 72.4C329.939 71.8667 328.572 71.6 327.305 71.6C325.972 71.6 324.539 71.9 323.005 72.5C321.539 73.1 320.272 74.1667 319.205 75.7C318.205 77.2333 317.705 79.3667 317.705 82.1C317.705 84.9667 318.239 87.2 319.305 88.8C320.439 90.3333 321.739 91.4 323.205 92C324.672 92.6 326.005 92.9 327.205 92.9ZM373.395 91.4C373.528 91.3333 373.661 91.2333 373.795 91.1C373.995 90.9667 374.195 90.9 374.395 90.9C374.795 90.9 375.061 91.0667 375.195 91.4C375.395 91.6667 375.495 91.9667 375.495 92.3C375.495 93.6333 375.195 95.0667 374.595 96.6C373.995 98.0667 372.995 99.3 371.595 100.3C370.195 101.3 368.261 101.8 365.795 101.8C362.661 101.8 360.161 100.767 358.295 98.7C356.495 96.6333 355.595 93.4333 355.595 89.1V46.6C355.595 45.8 355.928 45.4 356.595 45.4H357.095C359.695 45.4 361.695 46.0667 363.095 47.4C364.495 48.6667 365.195 50.8 365.195 53.8V88.2C365.195 91.6667 366.428 93.4 368.895 93.4C369.895 93.4 370.728 93.2333 371.395 92.9C372.061 92.5667 372.728 92.0667 373.395 91.4ZM379.111 53.6C379.111 52 379.611 50.7 380.611 49.7C381.678 48.6333 382.978 48.1 384.511 48.1C386.044 48.1 387.311 48.6333 388.311 49.7C389.378 50.7 389.911 52 389.911 53.6C389.911 55.1333 389.378 56.4333 388.311 57.5C387.311 58.5667 386.044 59.1 384.511 59.1C382.978 59.1 381.678 58.5667 380.611 57.5C379.611 56.4333 379.111 55.1333 379.111 53.6ZM380.811 101C380.144 101 379.811 100.633 379.811 99.9V64.6C379.811 63.8 380.144 63.4 380.811 63.4H381.311C383.844 63.4 385.811 64.0667 387.211 65.4C388.611 66.7333 389.311 68.9 389.311 71.9V99.9C389.311 100.633 388.944 101 388.211 101H380.811ZM397.956 90.1C399.49 91.3667 401.09 92.3667 402.756 93.1C404.49 93.8333 406.556 94.2 408.956 94.2C413.023 94.2 415.056 92.9 415.056 90.3C415.056 89.1667 414.423 88.2667 413.156 87.6C411.956 86.9333 410.456 86.3 408.656 85.7C406.923 85.1 405.156 84.3667 403.356 83.5C401.556 82.6333 400.023 81.5 398.756 80.1C397.556 78.6333 396.956 76.6667 396.956 74.2C396.956 71.4667 397.623 69.2667 398.956 67.6C400.356 65.8667 402.156 64.6 404.356 63.8C406.623 63 409.023 62.6 411.556 62.6C414.69 62.6 417.29 63.1 419.356 64.1C421.09 64.8333 422.223 65.7333 422.756 66.8C423.29 67.8 423.29 69.2333 422.756 71.1L422.456 72.2C422.256 72.7333 421.99 73 421.656 73C421.456 73 421.29 72.9667 421.156 72.9C421.023 72.7667 420.823 72.6667 420.556 72.6C417.423 71.0667 414.356 70.3 411.356 70.3C410.023 70.3 408.89 70.5667 407.956 71.1C407.023 71.6333 406.556 72.4667 406.556 73.6C406.556 74.7333 407.156 75.6667 408.356 76.4C409.623 77.0667 411.123 77.7 412.856 78.3C414.656 78.9 416.456 79.6333 418.256 80.5C420.056 81.3667 421.556 82.5 422.756 83.9C424.023 85.3 424.656 87.1667 424.656 89.5C424.656 93.2333 423.323 96.2667 420.656 98.6C417.99 100.867 414.456 102 410.056 102C407.256 102 404.79 101.533 402.656 100.6C400.59 99.6 398.956 98.3 397.756 96.7C396.556 95.1 395.956 93.4333 395.956 91.7C395.956 90.3667 396.356 89.7 397.156 89.7C397.423 89.7 397.69 89.8333 397.956 90.1Z" fill="#0F0F0F"/>
<path d="M335.68 163.16C335.68 162.093 336.027 161.56 336.72 161.56C337.093 161.56 337.44 161.747 337.76 162.12C339.36 164.04 341.173 165.56 343.2 166.68C345.28 167.747 347.787 168.28 350.72 168.28C354.027 168.28 356.587 167.64 358.4 166.36C360.213 165.027 361.12 163.24 361.12 161C361.12 159.4 360.533 158.12 359.36 157.16C358.187 156.147 356.693 155.293 354.88 154.6C353.067 153.907 351.12 153.213 349.04 152.52C346.96 151.827 345.013 151 343.2 150.04C341.387 149.027 339.893 147.72 338.72 146.12C337.547 144.52 336.96 142.44 336.96 139.88C336.96 137.373 337.6 135.213 338.88 133.4C340.213 131.587 342 130.2 344.24 129.24C346.48 128.227 349.04 127.72 351.92 127.72C354.107 127.72 356.08 127.907 357.84 128.28C359.653 128.653 361.307 129.187 362.8 129.88C365.467 130.84 366.48 132.44 365.84 134.68L365.44 136.28C365.333 136.813 365.12 137.08 364.8 137.08C364.587 137.08 364.187 136.92 363.6 136.6C361.947 135.533 360.107 134.707 358.08 134.12C356.107 133.48 354.027 133.16 351.84 133.16C349.333 133.16 347.253 133.72 345.6 134.84C343.947 135.96 343.12 137.533 343.12 139.56C343.12 141.213 343.707 142.547 344.88 143.56C346.053 144.573 347.547 145.427 349.36 146.12C351.173 146.76 353.12 147.427 355.2 148.12C357.28 148.813 359.227 149.64 361.04 150.6C362.853 151.507 364.347 152.733 365.52 154.28C366.693 155.827 367.28 157.827 367.28 160.28C367.28 164.333 365.867 167.613 363.04 170.12C360.267 172.627 356.373 173.88 351.36 173.88C347.733 173.88 344.747 173.293 342.4 172.12C340.107 170.947 338.4 169.533 337.28 167.88C336.213 166.173 335.68 164.6 335.68 163.16ZM373.227 135.64C373.227 134.573 373.574 133.693 374.267 133C374.96 132.307 375.814 131.96 376.827 131.96C377.787 131.96 378.614 132.307 379.307 133C380 133.693 380.347 134.573 380.347 135.64C380.347 136.653 380 137.507 379.307 138.2C378.614 138.893 377.787 139.24 376.827 139.24C375.814 139.24 374.96 138.893 374.267 138.2C373.574 137.507 373.227 136.653 373.227 135.64ZM374.427 173C374 173 373.787 172.76 373.787 172.28V144.28C373.787 143.8 374 143.56 374.427 143.56H374.827C376.374 143.56 377.574 144.013 378.427 144.92C379.334 145.827 379.787 147.213 379.787 149.08V172.28C379.787 172.76 379.574 173 379.147 173H374.427ZM395.128 173.56L384.888 144.28C384.781 143.8 384.914 143.56 385.288 143.56H386.648C388.301 143.56 389.528 143.907 390.328 144.6C391.128 145.293 391.874 146.6 392.568 148.52L398.328 165.96L405.368 144.44C405.581 143.853 406.008 143.56 406.648 143.56H411.048C411.421 143.56 411.554 143.8 411.448 144.28L400.968 173.72C400.061 176.333 399.128 178.6 398.168 180.52C397.208 182.493 396.061 184.013 394.728 185.08C393.448 186.147 391.794 186.68 389.768 186.68C387.741 186.68 386.114 186.013 384.888 184.68C383.661 183.347 383.047 181.933 383.047 180.44C383.047 180.173 383.127 179.907 383.287 179.64C383.394 179.373 383.581 179.24 383.848 179.24C384.114 179.24 384.354 179.347 384.568 179.56C385.314 180.147 386.008 180.6 386.648 180.92C387.288 181.293 387.981 181.48 388.728 181.48C390.168 181.48 391.314 180.92 392.168 179.8C393.021 178.733 394.008 176.653 395.128 173.56ZM438.918 168.84C437.744 170.493 436.331 171.72 434.678 172.52C433.024 173.32 431.184 173.72 429.158 173.72C426.224 173.72 423.718 173.027 421.638 171.64C419.611 170.253 418.064 168.387 416.998 166.04C415.931 163.693 415.398 161.107 415.398 158.28C415.398 155.293 415.984 152.653 417.158 150.36C418.331 148.013 419.958 146.173 422.038 144.84C424.171 143.507 426.624 142.84 429.398 142.84C431.638 142.84 433.584 143.267 435.238 144.12C436.944 144.973 438.278 146.093 439.238 147.48C439.504 146.093 440.038 145.107 440.838 144.52C441.638 143.88 442.651 143.56 443.878 143.56H444.278C444.651 143.56 444.838 143.8 444.838 144.28V172.28C444.838 172.76 444.651 173 444.278 173H439.558C439.131 173 438.918 172.76 438.918 172.28V168.84ZM430.038 168.12C431.371 168.12 432.704 167.853 434.038 167.32C435.424 166.733 436.571 165.72 437.478 164.28C438.438 162.84 438.918 160.84 438.918 158.28C438.918 155.667 438.438 153.667 437.478 152.28C436.571 150.84 435.451 149.853 434.118 149.32C432.784 148.787 431.504 148.52 430.278 148.52C427.984 148.52 425.958 149.32 424.197 150.92C422.438 152.52 421.558 154.973 421.558 158.28C421.558 160.68 421.984 162.6 422.838 164.04C423.744 165.48 424.838 166.52 426.118 167.16C427.451 167.8 428.758 168.12 430.038 168.12ZM459.076 147.56C459.93 146.227 461.156 145.133 462.756 144.28C464.356 143.373 466.223 142.92 468.356 142.92C472.09 142.92 475.023 144.067 477.156 146.36C479.29 148.653 480.356 151.773 480.356 155.72V172.28C480.356 172.76 480.143 173 479.716 173H474.996C474.57 173 474.356 172.76 474.356 172.28V156.84C474.356 154.013 473.69 151.907 472.356 150.52C471.023 149.133 469.236 148.44 466.996 148.44C464.596 148.44 462.703 149.16 461.316 150.6C459.93 151.987 459.236 154.173 459.236 157.16V172.28C459.236 172.76 459.05 173 458.676 173H453.956C453.53 173 453.316 172.76 453.316 172.28V144.28C453.316 143.8 453.53 143.56 453.956 143.56H454.356C455.583 143.56 456.623 143.907 457.476 144.6C458.33 145.293 458.863 146.28 459.076 147.56ZM510.949 168.84C509.775 170.493 508.362 171.72 506.709 172.52C505.055 173.32 503.215 173.72 501.189 173.72C498.255 173.72 495.749 173.027 493.669 171.64C491.642 170.253 490.095 168.387 489.029 166.04C487.962 163.693 487.429 161.107 487.429 158.28C487.429 155.293 488.015 152.653 489.189 150.36C490.362 148.013 491.989 146.173 494.069 144.84C496.202 143.507 498.655 142.84 501.429 142.84C503.669 142.84 505.615 143.267 507.269 144.12C508.975 144.973 510.309 146.093 511.269 147.48C511.535 146.093 512.069 145.107 512.869 144.52C513.669 143.88 514.682 143.56 515.909 143.56H516.309C516.682 143.56 516.869 143.8 516.869 144.28V172.28C516.869 172.76 516.682 173 516.309 173H511.589C511.162 173 510.949 172.76 510.949 172.28V168.84ZM502.069 168.12C503.402 168.12 504.735 167.853 506.069 167.32C507.455 166.733 508.602 165.72 509.509 164.28C510.469 162.84 510.949 160.84 510.949 158.28C510.949 155.667 510.469 153.667 509.509 152.28C508.602 150.84 507.482 149.853 506.149 149.32C504.815 148.787 503.535 148.52 502.309 148.52C500.015 148.52 497.989 149.32 496.229 150.92C494.469 152.52 493.589 154.973 493.589 158.28C493.589 160.68 494.015 162.6 494.869 164.04C495.775 165.48 496.869 166.52 498.149 167.16C499.482 167.8 500.789 168.12 502.069 168.12Z" fill="#0F0F0F"/>
<defs>
<linearGradient id="paint0_linear_246_1790" x1="23.6" y1="23.6" x2="219.2" y2="159.6" gradientUnits="userSpaceOnUse">
<stop offset="0.0384615" stop-color="#427DFF"/>
<stop offset="0.75" stop-color="white" stop-opacity="0"/>
</linearGradient>
<linearGradient id="paint1_linear_246_1790" x1="23.6" y1="23.6" x2="212" y2="182" gradientUnits="userSpaceOnUse">
<stop offset="0.289895" stop-color="white" stop-opacity="0"/>
<stop offset="0.942308" stop-color="#427DFF"/>
</linearGradient>
</defs>
</svg>
