<svg width="507" height="224" viewBox="0 0 507 224" fill="none" xmlns="http://www.w3.org/2000/svg">
<path d="M23.55 175.25H34.9L34.05 180.25H21.05L23.55 175.25ZM15.4 180.25C11.6333 180.25 8.65 179.1 6.45 176.8C4.25 174.467 3.15 171.183 3.15 166.95C3.15 163.383 3.93333 160.217 5.5 157.45C7.06667 154.683 9.15 152.55 11.75 151.05C14.3833 149.55 17.2167 148.8 20.25 148.8C22.75 148.8 24.8833 149.283 26.65 150.25C28.4167 151.217 29.6333 152.35 30.3 153.65L26.2 176.4L23.7 180.25H15.4ZM24.75 153.35L25 155.55C24.6333 155.05 24.0167 154.633 23.15 154.3C22.2833 153.967 21.2833 153.8 20.15 153.8C17.9833 153.8 16.0333 154.367 14.3 155.5C12.5667 156.633 11.2 158.217 10.2 160.25C9.2 162.283 8.7 164.6 8.7 167.2C8.7 169.867 9.25 171.883 10.35 173.25C11.4833 174.583 13.1667 175.25 15.4 175.25H21.35L20.8 175.6L24.75 153.35ZM34.9 175.25C35.2667 175.25 35.4833 175.45 35.55 175.85C35.6167 176.25 35.5833 176.883 35.45 177.75C35.3167 178.55 35.1333 179.167 34.9 179.6C34.7 180.033 34.4167 180.25 34.05 180.25L34.9 175.25ZM34.9223 175.25H42.0723L40.9723 176.25C41.0056 173.417 41.3889 170.233 42.1223 166.7C42.8889 163.133 43.7056 159.633 44.5723 156.2C44.6056 156.067 44.6389 155.967 44.6723 155.9C44.7056 155.8 44.7223 155.733 44.7223 155.7L45.0223 158L41.9223 154.6C42.7223 153.967 43.6556 153.467 44.7223 153.1C45.7889 152.7 46.7889 152.5 47.7223 152.5C48.6223 152.5 49.2723 152.717 49.6723 153.15C50.1056 153.55 50.3223 154.217 50.3223 155.15C50.2889 155.417 50.2056 155.867 50.0723 156.5C49.9389 157.1 49.7723 157.833 49.5723 158.7C48.7389 162.233 48.0223 165.517 47.4223 168.55C46.8223 171.583 46.5056 174.217 46.4723 176.45L44.0223 180.25H34.1223L34.9223 175.25ZM34.1223 180.25C33.7556 180.25 33.5389 180.033 33.4723 179.6C33.3723 179.2 33.3889 178.583 33.5223 177.75C33.6889 176.917 33.8723 176.3 34.0723 175.9C34.2723 175.467 34.5556 175.25 34.9223 175.25L34.1223 180.25ZM47.7723 148C46.8056 148 46.0389 147.767 45.4723 147.3C44.9056 146.8 44.6223 146.15 44.6223 145.35C44.6223 144.183 45.0223 143.233 45.8223 142.5C46.6223 141.767 47.6389 141.4 48.8723 141.4C49.8389 141.4 50.6056 141.65 51.1723 142.15C51.7389 142.617 52.0223 143.267 52.0223 144.1C52.0223 145.233 51.6223 146.167 50.8223 146.9C50.0556 147.633 49.0389 148 47.7723 148ZM66.9426 180.25C65.4092 180.25 63.8259 180.017 62.1926 179.55C60.5926 179.083 59.2259 178.5 58.0926 177.8L59.8426 175.25H69.3426L68.5426 180.25H66.9426ZM59.0926 180.25C58.0592 180.25 57.2592 179.917 56.6926 179.25C56.1592 178.617 55.8926 177.7 55.8926 176.5C55.8926 175.2 56.1926 172.5 56.7926 168.4C57.3926 164.267 58.1259 159.533 58.9926 154.2C59.5926 150.667 60.1926 147.25 60.7926 143.95L61.7426 146.2L58.4426 142.4C59.2426 141.733 60.1759 141.217 61.2426 140.85C62.3426 140.45 63.3259 140.25 64.1926 140.25C65.0259 140.25 65.6592 140.45 66.0926 140.85C66.5592 141.217 66.7926 141.783 66.7926 142.55C66.7926 143.15 66.6259 144.317 66.2926 146.05C65.9926 147.783 65.6259 149.683 65.1926 151.75C64.0926 157.35 63.2426 161.983 62.6426 165.65C62.0426 169.283 61.7426 172.467 61.7426 175.2C61.7426 176.133 61.8092 176.883 61.9426 177.45C62.1092 177.983 62.3926 178.45 62.7926 178.85C62.2926 179.283 61.7092 179.617 61.0426 179.85C60.4092 180.117 59.7592 180.25 59.0926 180.25ZM69.3426 175.25C69.7092 175.25 69.9259 175.45 69.9926 175.85C70.0592 176.25 70.0259 176.883 69.8926 177.75C69.7592 178.55 69.5759 179.167 69.3426 179.6C69.1426 180.033 68.8592 180.25 68.4926 180.25L69.3426 175.25ZM69.3949 175.25H76.7949L75.0449 177V175.2C75.0449 174.467 75.1783 173.4 75.4449 172C75.7116 170.567 75.9949 169.117 76.2949 167.65C76.7949 165.45 77.1783 163.533 77.4449 161.9C77.7449 160.233 77.8949 158.817 77.8949 157.65C77.8949 156.983 77.8449 156.333 77.7449 155.7C77.6449 155.033 77.5116 154.417 77.3449 153.85C78.0449 153.45 78.7449 153.133 79.4449 152.9C80.1783 152.633 80.8449 152.5 81.4449 152.5C82.3449 152.5 82.9949 152.783 83.3949 153.35C83.8283 153.883 84.0449 154.683 84.0449 155.75C84.0449 156.55 83.9449 157.45 83.7449 158.45C83.5783 159.45 83.3116 160.8 82.9449 162.5C82.5449 164.2 82.2449 165.617 82.0449 166.75C81.8449 167.85 81.7449 168.85 81.7449 169.75C81.7449 171.45 82.1616 172.8 82.9949 173.8C83.8283 174.767 84.9949 175.25 86.4949 175.25H88.7949L87.9949 180.25H84.3949C83.1949 180.25 82.2116 179.917 81.4449 179.25C80.7116 178.583 80.1949 177.65 79.8949 176.45L81.4449 177.65H79.8949L78.1949 180.25H68.5949L69.3949 175.25ZM88.8449 175.25C89.2116 175.25 89.4283 175.45 89.4949 175.85C89.5616 176.25 89.5283 176.883 89.3949 177.75C89.2616 178.55 89.0783 179.167 88.8449 179.6C88.6449 180.033 88.3616 180.25 87.9949 180.25L88.8449 175.25ZM68.5949 180.25C68.2283 180.25 68.0116 180.033 67.9449 179.6C67.8449 179.2 67.8616 178.583 67.9949 177.75C68.1616 176.917 68.3449 176.3 68.5449 175.9C68.7449 175.467 69.0283 175.25 69.3949 175.25L68.5949 180.25ZM79.0949 190.85C78.1616 190.85 77.4116 190.6 76.8449 190.1C76.2783 189.633 75.9949 189 75.9949 188.2C75.9949 187.033 76.3949 186.083 77.1949 185.35C77.9949 184.617 79.0116 184.25 80.2449 184.25C81.2116 184.25 81.9783 184.483 82.5449 184.95C83.1116 185.45 83.3949 186.117 83.3949 186.95C83.3949 188.083 82.9949 189.017 82.1949 189.75C81.3949 190.483 80.3616 190.85 79.0949 190.85ZM70.9949 190.85C70.0283 190.85 69.2616 190.6 68.6949 190.1C68.1283 189.633 67.8449 189 67.8449 188.2C67.8449 187.033 68.2449 186.083 69.0449 185.35C69.8449 184.617 70.8616 184.25 72.0949 184.25C73.0616 184.25 73.8283 184.483 74.3949 184.95C74.9616 185.45 75.2449 186.117 75.2449 186.95C75.2449 188.083 74.8449 189.017 74.0449 189.75C73.2783 190.483 72.2616 190.85 70.9949 190.85ZM88.8285 175.25H96.8785L95.1785 176.85C95.0785 175.05 95.1285 173.467 95.3285 172.1C95.5618 170.7 95.9285 169.033 96.4285 167.1C96.8285 165.567 97.1285 164.217 97.3285 163.05C97.5618 161.883 97.6785 160.6 97.6785 159.2C97.6785 158.233 97.6118 157.433 97.4785 156.8C97.3785 156.167 97.2452 155.767 97.0785 155.6C97.5118 155.233 98.0452 154.9 98.6785 154.6C99.3452 154.3 100.012 154.15 100.679 154.15C101.745 154.15 102.479 154.533 102.879 155.3C103.312 156.067 103.495 157.033 103.429 158.2C103.362 159.333 103.145 160.483 102.779 161.65H101.379C102.745 159.317 104.362 157.3 106.229 155.6C108.129 153.867 110.345 152.517 112.879 151.55C115.412 150.583 118.262 150.1 121.429 150.1C124.862 150.1 127.862 150.667 130.429 151.8C132.995 152.933 134.979 154.567 136.379 156.7C137.779 158.8 138.479 161.283 138.479 164.15C138.479 167.217 137.695 169.983 136.129 172.45C134.562 174.883 132.412 176.8 129.679 178.2C126.945 179.567 123.862 180.25 120.429 180.25H88.0285L88.8285 175.25ZM98.6285 175.25H120.429C122.929 175.25 125.112 174.767 126.979 173.8C128.879 172.833 130.345 171.517 131.379 169.85C132.412 168.15 132.929 166.25 132.929 164.15C132.929 161.25 131.929 159.017 129.929 157.45C127.929 155.883 125.095 155.1 121.429 155.1C116.729 155.1 112.795 156.2 109.629 158.4C106.495 160.6 104.179 163.317 102.679 166.55C101.212 169.783 100.445 172.95 100.379 176.05L98.6285 175.25ZM88.0285 180.25C87.6618 180.25 87.4452 180.033 87.3785 179.6C87.2785 179.2 87.2952 178.583 87.4285 177.75C87.5952 176.917 87.7785 176.3 87.9785 175.9C88.1785 175.467 88.4618 175.25 88.8285 175.25L88.0285 180.25Z" fill="#0F0F0F"/>
<path d="M145.22 103.5C143.46 103.5 142.12 103.04 141.2 102.12C140.32 101.2 139.82 99.8 139.7 97.92L142.16 100.38H135.44L143.9 84.24C143.86 84.44 143.82 84.66 143.78 84.9C143.74 85.1 143.72 85.3 143.72 85.5C143.52 86.42 143.36 87.26 143.24 88.02C143.12 88.74 143.06 89.42 143.06 90.06C143.06 91.74 143.46 93.04 144.26 93.96C145.06 94.84 146.22 95.28 147.74 95.28H152L150.68 103.5H145.22ZM77.6 118.62C73.92 118.62 70.6 117.86 67.64 116.34C64.68 114.82 62.36 112.66 60.68 109.86C59 107.1 58.16 103.92 58.16 100.32C58.16 97.8 58.56 95.66 59.36 93.9C60.2 92.1 61.26 90.76 62.54 89.88C63.82 88.96 65.16 88.5 66.56 88.5C67.84 88.5 69 88.8 70.04 89.4C71.08 89.96 71.72 90.52 71.96 91.08C70.96 91.92 70.04 93.18 69.2 94.86C68.36 96.54 67.94 98.42 67.94 100.5C67.94 103.18 68.72 105.5 70.28 107.46C71.84 109.42 74.44 110.4 78.08 110.4C82.04 110.4 85.26 109.12 87.74 106.56C90.22 104.04 92 100.74 93.08 96.66C94.16 92.58 94.7 88.12 94.7 83.28C94.7 81.4 94.62 79.82 94.46 78.54C94.3 77.22 94.02 76.2 93.62 75.48C95.26 74.68 96.58 74.08 97.58 73.68C98.62 73.28 99.66 73.08 100.7 73.08C102.14 73.08 103.14 73.46 103.7 74.22C104.26 74.94 104.54 76.04 104.54 77.52C104.54 78.32 104.46 79.24 104.3 80.28C104.18 81.28 104.02 82.34 103.82 83.46C103.34 86.34 103.1 88.42 103.1 89.7C103.1 91.58 103.46 92.98 104.18 93.9C104.94 94.82 106.12 95.28 107.72 95.28H115.52L112.28 98.52V95.16C112.28 93.96 112.36 92.82 112.52 91.74C112.72 90.66 113.04 89.2 113.48 87.36C113.88 85.48 114.18 84 114.38 82.92C114.58 81.8 114.68 80.66 114.68 79.5C114.68 78.46 114.58 77.5 114.38 76.62C114.22 75.74 113.98 74.98 113.66 74.34C115.06 73.62 116.46 73.04 117.86 72.6C119.26 72.16 120.5 71.94 121.58 71.94C122.9 71.94 123.86 72.3 124.46 73.02C125.1 73.7 125.42 74.74 125.42 76.14C125.42 77.02 125.3 78.02 125.06 79.14C124.86 80.22 124.58 81.48 124.22 82.92C123.82 84.36 123.5 85.64 123.26 86.76C123.06 87.88 122.96 88.94 122.96 89.94C122.96 91.7 123.36 93.04 124.16 93.96C124.96 94.84 126.14 95.28 127.7 95.28H135.08L132.2 98.52V95.16C132.2 93.88 132.32 92.54 132.56 91.14C132.84 89.74 133.2 88.22 133.64 86.58C134.12 84.54 134.48 82.86 134.72 81.54C135 80.18 135.14 78.9 135.14 77.7C135.14 76.7 135.04 75.74 134.84 74.82C134.64 73.9 134.4 73.16 134.12 72.6C135.56 71.84 136.94 71.26 138.26 70.86C139.62 70.42 140.84 70.2 141.92 70.2C143.24 70.2 144.22 70.54 144.86 71.22C145.5 71.9 145.82 72.84 145.82 74.04C145.82 74.88 145.66 76.08 145.34 77.64C145.06 79.2 144.7 81 144.26 83.04C143.54 86.16 142.96 88.8 142.52 90.96C142.12 93.12 141.86 95.2 141.74 97.2L137.66 103.5H125.18C123.38 103.5 122.02 103.04 121.1 102.12C120.22 101.2 119.72 99.8 119.6 97.92L122.06 100.38H119.54L117.5 103.5H105.5C103.74 103.5 102.4 103.04 101.48 102.12C100.6 101.2 100.1 99.8 99.98 97.92L102.8 101.1H99.8C98.84 104.1 97.4 106.92 95.48 109.56C93.56 112.2 91.08 114.36 88.04 116.04C85.04 117.76 81.56 118.62 77.6 118.62ZM152 95.28C152.56 95.28 152.9 95.62 153.02 96.3C153.18 96.98 153.16 98.02 152.96 99.42C152.72 100.74 152.42 101.74 152.06 102.42C151.7 103.14 151.22 103.5 150.62 103.5L152 95.28ZM173.776 103.5C172.016 103.5 170.676 103.04 169.756 102.12C168.876 101.2 168.376 99.8 168.256 97.92L171.916 100.38H164.656L171.256 84.9L171.136 85.62C171.016 86.46 170.916 87.28 170.836 88.08C170.756 88.84 170.716 89.5 170.716 90.06C170.716 91.66 171.096 92.94 171.856 93.9C172.656 94.82 173.816 95.28 175.336 95.28H181.216L179.896 103.5H173.776ZM152.056 95.28H163.216L159.916 96.24C159.916 94.64 160.256 91.66 160.936 87.3C161.616 82.94 162.516 77.64 163.636 71.4C163.956 69.56 164.256 67.82 164.536 66.18C164.856 64.54 165.136 63 165.376 61.56L166.996 65.88L161.956 59.16C163.476 58.04 165.076 57.16 166.756 56.52C168.436 55.84 170.076 55.5 171.676 55.5C173.116 55.5 174.176 55.8 174.856 56.4C175.536 57 175.876 57.94 175.876 59.22C175.876 60.1 175.716 61.38 175.396 63.06C175.076 64.7 174.656 66.72 174.136 69.12C172.936 74.8 171.996 79.82 171.316 84.18C170.636 88.54 170.296 92.88 170.296 97.2L166.216 103.5H150.736L152.056 95.28ZM150.736 103.5C150.136 103.5 149.776 103.14 149.656 102.42C149.496 101.74 149.536 100.72 149.776 99.36C149.976 98 150.256 96.98 150.616 96.3C150.976 95.62 151.456 95.28 152.056 95.28L150.736 103.5ZM181.216 95.28C181.816 95.28 182.176 95.62 182.296 96.3C182.456 96.98 182.416 98.02 182.176 99.42C181.976 100.74 181.696 101.74 181.336 102.42C180.976 103.14 180.496 103.5 179.896 103.5L181.216 95.28ZM181.294 95.28H191.734L188.494 98.52V95.16C188.494 93.92 188.574 92.8 188.734 91.8C188.934 90.8 189.234 89.52 189.634 87.96C190.034 86.36 190.334 85.04 190.534 84C190.774 82.96 190.894 81.86 190.894 80.7C190.894 79.66 190.794 78.7 190.594 77.82C190.394 76.9 190.134 76.12 189.814 75.48C191.254 74.76 192.654 74.18 194.014 73.74C195.414 73.3 196.654 73.08 197.734 73.08C199.094 73.08 200.074 73.44 200.674 74.16C201.274 74.84 201.574 75.88 201.574 77.28C201.574 78.2 201.474 79.12 201.274 80.04C201.114 80.96 200.834 82.1 200.434 83.46C200.034 84.82 199.714 86 199.474 87C199.274 88 199.174 88.98 199.174 89.94C199.174 91.7 199.574 93.04 200.374 93.96C201.174 94.84 202.354 95.28 203.914 95.28H211.654L208.474 98.52V95.16C208.474 93.96 208.574 92.78 208.774 91.62C208.974 90.42 209.254 89 209.614 87.36C210.014 85.68 210.314 84.24 210.514 83.04C210.754 81.84 210.874 80.66 210.874 79.5C210.874 78.46 210.774 77.5 210.574 76.62C210.414 75.7 210.174 74.94 209.854 74.34C211.254 73.58 212.634 73 213.994 72.6C215.394 72.16 216.634 71.94 217.714 71.94C219.074 71.94 220.054 72.3 220.654 73.02C221.294 73.7 221.614 74.74 221.614 76.14C221.614 77.02 221.494 78.02 221.254 79.14C221.054 80.22 220.774 81.48 220.414 82.92C220.014 84.36 219.694 85.64 219.454 86.76C219.254 87.88 219.154 88.94 219.154 89.94C219.154 91.7 219.554 93.04 220.354 93.96C221.154 94.84 222.314 95.28 223.834 95.28H231.274L228.394 98.52V95.16C228.394 93.88 228.514 92.54 228.754 91.14C229.034 89.74 229.394 88.22 229.834 86.58C230.314 84.46 230.674 82.76 230.914 81.48C231.194 80.16 231.334 78.9 231.334 77.7C231.334 76.66 231.234 75.7 231.034 74.82C230.834 73.9 230.574 73.16 230.254 72.6C231.694 71.84 233.094 71.26 234.454 70.86C235.814 70.42 237.014 70.2 238.054 70.2C239.414 70.2 240.414 70.54 241.054 71.22C241.694 71.9 242.014 72.84 242.014 74.04C242.014 74.88 241.854 76.08 241.534 77.64C241.214 79.2 240.834 81 240.394 83.04C239.674 86.16 239.114 88.8 238.714 90.96C238.314 93.12 238.034 95.2 237.874 97.2L233.854 103.5H221.314C219.554 103.5 218.214 103.04 217.294 102.12C216.414 101.2 215.894 99.8 215.734 97.92L218.254 100.38H215.734L213.694 103.5H201.394C199.594 103.5 198.234 103.04 197.314 102.12C196.434 101.2 195.934 99.8 195.814 97.92L198.274 100.38H195.814L193.774 103.5H179.974L181.294 95.28ZM179.974 103.5C179.374 103.5 179.014 103.14 178.894 102.42C178.734 101.74 178.774 100.72 179.014 99.36C179.214 98 179.494 96.98 179.854 96.3C180.214 95.62 180.694 95.28 181.294 95.28L179.974 103.5Z" fill="#0F0F0F"/>
<path d="M472.008 83L396.639 139.619C395.808 140.242 396.362 141.562 397.389 141.407L451.703 133.188" stroke="#6394FF" stroke-width="15" stroke-linecap="round"/>
<path d="M375.062 131.646L413.216 103.391C414.058 102.768 413.497 101.434 412.463 101.6L318.359 116.708" stroke="white" stroke-width="15" stroke-linecap="round"/>
<rect x="289" y="6" width="212" height="212" rx="51" stroke="white" stroke-width="12"/>
<rect x="289" y="6" width="212" height="212" rx="51" stroke="url(#paint0_linear_246_1772)" stroke-width="12"/>
<rect x="289" y="6" width="212" height="212" rx="51" stroke="url(#paint1_linear_246_1772)" stroke-width="12"/>
<defs>
<linearGradient id="paint0_linear_246_1772" x1="306.6" y1="23.6" x2="502.2" y2="159.6" gradientUnits="userSpaceOnUse">
<stop offset="0.0384615" stop-color="#427DFF"/>
<stop offset="0.75" stop-color="white" stop-opacity="0"/>
</linearGradient>
<linearGradient id="paint1_linear_246_1772" x1="306.6" y1="23.6" x2="495" y2="182" gradientUnits="userSpaceOnUse">
<stop offset="0.289895" stop-color="white" stop-opacity="0"/>
<stop offset="0.942308" stop-color="#427DFF"/>
</linearGradient>
</defs>
</svg>
